<?xml version="1.0" encoding="utf-8"?><svg width="288" height="16" viewBox="0 0 288 16" xmlns="http://www.w3.org/2000/svg" xmlns:xlink="http://www.w3.org/1999/xlink"><svg viewBox="0 0 36 36" width="16" height="16" id="0010_1f4e1" xmlns="http://www.w3.org/2000/svg"><path fill="#99AAB5" d="M10.746 21.521c1.668 0 7.43 4.345 7.427 9.701.003 5.358-14.853 5.358-14.854-.001.001-5.356 5.759-9.7 7.427-9.7z"/><path fill="#CCD6DD" d="M8.541 25.182c8.839 8.84 17.337 5.163 20.033 2.469 2.695-2.696-.158-9.916-6.371-16.129C15.988 5.308 8.767 2.455 6.072 5.15 3.377 7.845-.299 16.343 8.541 25.182z"/><path fill="#66757F" d="M12.443 21.278c6.214 6.214 13.434 9.066 16.13 6.372 2.695-2.696-.158-9.916-6.371-16.129C15.988 5.308 8.767 2.455 6.072 5.15c-2.695 2.695.158 9.916 6.371 16.128z"/><path fill="#CCD6DD" d="M22.202 11.521a1.138 1.138 0 0 1 0 1.607l-7.233 7.231a1.136 1.136 0 1 1-1.607-1.607l7.232-7.231a1.137 1.137 0 0 1 1.608 0z"/><path fill="#CCD6DD" d="M23.809 9.915a2.274 2.274 0 1 1-3.217 3.214 2.274 2.274 0 0 1 3.217-3.214z"/><path fill="#FFAC33" d="M28.287 13.078l-.051-.001a1 1 0 0 1-.949-1.048c.001-.016.063-2.157-1.58-3.8-1.638-1.637-3.772-1.579-3.801-1.58a1 1 0 0 1-.1-1.997c.122-.012 3.028-.123 5.314 2.163 2.287 2.288 2.17 5.191 2.164 5.314a1 1 0 0 1-.997.949z"/><path fill="#FFAC33" d="M31.846 12.522a1 1 0 0 1-.943-1.331c.034-.107.893-2.876-2.195-5.963-3.126-3.127-6.126-2.414-6.252-2.382a1.003 1.003 0 0 1-1.216-.715.995.995 0 0 1 .701-1.217c.17-.046 4.205-1.077 8.181 2.901 4.016 4.014 2.726 7.876 2.668 8.039-.144.41-.531.668-.944.668z"/><path fill="#66757F" d="M10.914 32.521c-2.9 0-5.543-.658-7.566-1.737-.008.146-.029.29-.029.438.001 5.359 14.857 5.359 14.854.001 0-.09-.015-.177-.018-.266-1.977.976-4.496 1.564-7.241 1.564z"/></svg><svg viewBox="0 0 36 36" width="16" height="16" id="0020_1f4e6" x="16" xmlns="http://www.w3.org/2000/svg"><path fill="#662113" d="M4 11v12.375c0 2.042 1.093 2.484 1.093 2.484l11.574 9.099C18.489 36.39 18 33.375 18 33.375V22L4 11z"/><path fill="#C1694F" d="M32 11v12.375c0 2.042-1.063 2.484-1.063 2.484s-9.767 7.667-11.588 9.099C17.526 36.39 18 33.375 18 33.375V22l14-11z"/><path fill="#D99E82" d="M19.289.5c-.753-.61-1.988-.61-2.742 0L4.565 10.029c-.754.61-.754 1.607 0 2.216l12.023 9.646c.754.609 1.989.609 2.743 0l12.104-9.73c.754-.609.754-1.606 0-2.216L19.289.5z"/><path fill="#D99E82" d="M18 35.75c-.552 0-1-.482-1-1.078V21.745c0-.596.448-1.078 1-1.078.553 0 1 .482 1 1.078v12.927c0 .596-.447 1.078-1 1.078z"/><path fill="#99AAB5" d="M28 18.836c0 1.104.104 1.646-1 2.442l-2.469 1.878c-1.104.797-1.531.113-1.531-.992v-2.961c0-.193-.026-.4-.278-.608C20.144 16.47 10.134 8.519 8.31 7.051l4.625-3.678c1.266.926 10.753 8.252 14.722 11.377.197.156.343.328.343.516v3.57z"/><path fill="#CCD6DD" d="M27.656 14.75C23.688 11.625 14.201 4.299 12.935 3.373l-1.721 1.368-2.904 2.31c1.825 1.468 11.834 9.419 14.412 11.544a.69.69 0 0 1 .248.371L27.903 15a1.187 1.187 0 0 0-.247-.25z"/><path fill="#CCD6DD" d="M28 18.836v-3.57c0-.188-.146-.359-.344-.516-3.968-3.125-13.455-10.451-14.721-11.377l-2.073 1.649c3.393 2.669 12.481 9.681 14.86 11.573.256.204.278.415.278.608v4.836l1-.761c1.104-.797 1-1.338 1-2.442z"/><path fill="#E1E8ED" d="M27.656 14.75C23.688 11.625 14.201 4.299 12.935 3.373l-2.073 1.649c3.393 2.669 12.481 9.681 14.86 11.573.037.029.06.059.087.088L27.903 15a1.187 1.187 0 0 0-.247-.25z"/></svg><svg viewBox="0 0 36 36" width="16" height="16" id="0030_1f389" x="32" xmlns="http://www.w3.org/2000/svg"><path fill="#DD2E44" d="M11.626 7.488a1.413 1.413 0 0 0-.268.395l-.008-.008L.134 33.141l.011.011c-.208.403.14 1.223.853 1.937.713.713 1.533 1.061 1.936.853l.01.01L28.21 24.735l-.008-.009c.147-.07.282-.155.395-.269 1.562-1.562-.971-6.627-5.656-11.313-4.687-4.686-9.752-7.218-11.315-5.656z"/><path fill="#EA596E" d="M13 12L.416 32.506l-.282.635.011.011c-.208.403.14 1.223.853 1.937.232.232.473.408.709.557L17 17l-4-5z"/><path fill="#A0041E" d="M23.012 13.066c4.67 4.672 7.263 9.652 5.789 11.124-1.473 1.474-6.453-1.118-11.126-5.788-4.671-4.672-7.263-9.654-5.79-11.127 1.474-1.473 6.454 1.119 11.127 5.791z"/><path fill="#AA8DD8" d="M18.59 13.609a.99.99 0 0 1-.734.215c-.868-.094-1.598-.396-2.109-.873-.541-.505-.808-1.183-.735-1.862.128-1.192 1.324-2.286 3.363-2.066.793.085 1.147-.17 1.159-.292.014-.121-.277-.446-1.07-.532-.868-.094-1.598-.396-2.11-.873-.541-.505-.809-1.183-.735-1.862.13-1.192 1.325-2.286 3.362-2.065.578.062.883-.057 1.012-.134.103-.063.144-.123.148-.158.012-.121-.275-.446-1.07-.532a.998.998 0 0 1-.886-1.102.997.997 0 0 1 1.101-.886c2.037.219 2.973 1.542 2.844 2.735-.13 1.194-1.325 2.286-3.364 2.067-.578-.063-.88.057-1.01.134-.103.062-.145.123-.149.157-.013.122.276.446 1.071.532 2.037.22 2.973 1.542 2.844 2.735-.129 1.192-1.324 2.286-3.362 2.065-.578-.062-.882.058-1.012.134-.104.064-.144.124-.148.158-.013.121.276.446 1.07.532a1 1 0 0 1 .52 1.773z"/><path fill="#77B255" d="M30.661 22.857c1.973-.557 3.334.323 3.658 1.478.324 1.154-.378 2.615-2.35 3.17-.77.216-1.001.584-.97.701.034.118.425.312 1.193.095 1.972-.555 3.333.325 3.657 1.479.326 1.155-.378 2.614-2.351 3.17-.769.216-1.001.585-.967.702.033.117.423.311 1.192.095a1 1 0 1 1 .54 1.925c-1.971.555-3.333-.323-3.659-1.479-.324-1.154.379-2.613 2.353-3.169.77-.217 1.001-.584.967-.702-.032-.117-.422-.312-1.19-.096-1.974.556-3.334-.322-3.659-1.479-.325-1.154.378-2.613 2.351-3.17.768-.215.999-.585.967-.701-.034-.118-.423-.312-1.192-.096a1 1 0 1 1-.54-1.923z"/><path fill="#AA8DD8" d="M23.001 20.16a1.001 1.001 0 0 1-.626-1.781c.218-.175 5.418-4.259 12.767-3.208a1 1 0 1 1-.283 1.979c-6.493-.922-11.187 2.754-11.233 2.791a.999.999 0 0 1-.625.219z"/><path fill="#77B255" d="M5.754 16a1 1 0 0 1-.958-1.287c1.133-3.773 2.16-9.794.898-11.364-.141-.178-.354-.353-.842-.316-.938.072-.849 2.051-.848 2.071a1 1 0 1 1-1.994.149c-.103-1.379.326-4.035 2.692-4.214 1.056-.08 1.933.287 2.552 1.057 2.371 2.951-.036 11.506-.542 13.192a1 1 0 0 1-.958.712z"/><circle fill="#5C913B" cx="25.5" cy="9.5" r="1.5"/><circle fill="#9266CC" cx="2" cy="18" r="2"/><circle fill="#5C913B" cx="32.5" cy="19.5" r="1.5"/><circle fill="#5C913B" cx="23.5" cy="31.5" r="1.5"/><circle fill="#FFCC4D" cx="28" cy="4" r="2"/><circle fill="#FFCC4D" cx="32.5" cy="8.5" r="1.5"/><circle fill="#FFCC4D" cx="29.5" cy="12.5" r="1.5"/><circle fill="#FFCC4D" cx="7.5" cy="23.5" r="1.5"/></svg><svg viewBox="0 0 36 36" width="16" height="16" id="0040_1f496" x="48" xmlns="http://www.w3.org/2000/svg"><path fill="#DD2E44" d="M35.885 11.833c0-5.45-4.418-9.868-9.867-9.868-3.308 0-6.227 1.633-8.018 4.129-1.791-2.496-4.71-4.129-8.017-4.129-5.45 0-9.868 4.417-9.868 9.868 0 .772.098 1.52.266 2.241C1.751 22.587 11.216 31.568 18 34.034c6.783-2.466 16.249-11.447 17.617-19.959.17-.721.268-1.469.268-2.242z"/><path fill="#FDCB58" d="M34.347 23.894l-3.824-1.416-1.416-3.824a1 1 0 0 0-1.876-.001l-1.416 3.824-3.824 1.416a1.001 1.001 0 0 0 0 1.876l3.824 1.416 1.416 3.824a1 1 0 0 0 1.876 0l1.416-3.824 3.824-1.416a1.001 1.001 0 0 0 0-1.875zm-23-16.001l-2.365-.875-.875-2.365a1 1 0 0 0-1.876 0l-.876 2.365-2.364.875a1 1 0 0 0 0 1.876l2.365.875.875 2.365a1 1 0 0 0 1.876 0l.875-2.365 2.365-.875a1 1 0 0 0 0-1.876z"/></svg><svg viewBox="0 0 36 36" width="16" height="16" id="0050_1f6a7" x="64" xmlns="http://www.w3.org/2000/svg"><path fill="#FFCC4D" d="M36 15a4 4 0 0 1-4 4H4a4 4 0 0 1-4-4V7a4 4 0 0 1 4-4h28a4 4 0 0 1 4 4v8z"/><path d="M6 3H4a4 4 0 0 0-4 4v2l6-6zm6 0L0 15c0 1.36.682 2.558 1.72 3.28L17 3h-5zM7 19h5L28 3h-5zm16 0L35.892 6.108A3.995 3.995 0 0 0 33.64 3.36L18 19h5zm13-4v-3l-7 7h3a4 4 0 0 0 4-4z" fill="#292F33"/><path fill="#99AAB5" d="M4 19h5v14H4zm23 0h5v14h-5z"/></svg><svg viewBox="0 0 36 36" width="16" height="16" id="0060_1f4dc" x="80" xmlns="http://www.w3.org/2000/svg"><path fill="#FFD983" d="M32 0H10a4 4 0 0 0-4 4v24H4a4 4 0 0 0 0 8h24a4 4 0 0 0 4-4V8a4 4 0 0 0 0-8z"/><path fill="#E39F3D" d="M8 10h24V8H10L8 7z"/><path fill="#FFE8B6" d="M10 0a4 4 0 0 0-4 4v24.555A3.955 3.955 0 0 0 4 28a4 4 0 1 0 4 4V7.445C8.59 7.789 9.268 8 10 8a4 4 0 0 0 0-8z"/><path fill="#C1694F" d="M12 4a2 2 0 1 1-4.001-.001A2 2 0 0 1 12 4M6 32a2 2 0 1 1-4.001-.001A2 2 0 0 1 6 32m24-17a1 1 0 0 1-1 1H11a1 1 0 0 1 0-2h18a1 1 0 0 1 1 1m0 4a1 1 0 0 1-1 1H11a1 1 0 1 1 0-2h18a1 1 0 0 1 1 1m0 4a1 1 0 0 1-1 1H11a1 1 0 1 1 0-2h18a1 1 0 0 1 1 1m0 4a1 1 0 0 1-1 1H11a1 1 0 1 1 0-2h18a1 1 0 0 1 1 1"/></svg><svg viewBox="0 0 36 36" width="16" height="16" id="0070_1f483" x="96" xmlns="http://www.w3.org/2000/svg"><path fill="#DD2E44" d="M16.908 32.178c.05-.603-.299-1.018-.755-1.024h-.188c-.456.006-.805.421-.755 1.024.075.905-.017 1.4-.052 2.318-.025.674.296 1.498.901 1.491.605.007.926-.817.901-1.491-.035-.918-.127-1.413-.052-2.318z"/><path fill="#FFDC5D" d="M17.021 27.471c.001-.268-.486-.398-.962-.394-.476-.004-.963.126-.962.394 0 0 .409 3.448.331 6.691-.007.286.313.44.631.443.318-.003.638-.156.631-.443-.078-3.243.331-6.691.331-6.691z"/><path fill="#DD2E44" d="M15.385 32.081h1.365v.65h-1.365z"/><path fill="#FFDC5D" d="M24.23 20.819s3.162-2.282 3.598-2.309c.247-.016 1.883-.13 2.23-.163 1.259-.125 3.854-.67 4.081-.719.228-.05.322.031.839-.806.517-.838-.044-.64-.044-.64s-.354.293-.547.379-.562.173-.909.166c-1.085-.023-7.175-.281-7.175-.281-.848.049-1.288.04-1.615.673-.574 1.104-.493 3.138-.458 3.7z"/><path fill="#FFAC33" d="M16.043 1.013c.203-.378.538-.985 1.806-.602 1.915.579.194 1.602.194 1.602s2 1 2 4-2.344 2.369-2.344 5.531l-.359.534s.644-.438-1.356 1.562c-4 4-6.782-1.274-6.412-2.754.542-2.169-.529-1.873-.529-3.873s2-2 2-4 2-3 3-3 2 1 2 1z"/><ellipse fill="#FFDC5D" cx="14.668" cy="5.013" rx="2.625" ry="3"/><path fill="#FFAC33" d="M14.543 1.013c-.927 0-1.727.306-2.158.755-1.103-.208-.477 1.517-1.342 3.245-1 2 1 4 1 3s0-4 2-4h.5c1.381 0 2.5-.671 2.5-1.5s-1.119-1.5-2.5-1.5z"/><path fill="#FFDC5D" d="M18.6 9.333c-.98-.334-1.68-.297-2.877-.313l-.432-3.883a1 1 0 0 0-1.987.221l.406 3.656-1.94.046.022 1.953c.009.262.086.588.251 1 1 2.5 6 2.985 6 .5 0-.604-.048-1.06-.15-1.407 1.205.088 3.366-.867.707-1.773z"/><path fill="#DD2E44" d="M13.043 16.013c0 2 0 3-2 6s-4 3-5 5 0 2 2 1 1 4 4 4 2-3 4-3 3 3 5 3 2.581-2.419 1-4c-1-1 2-3 3-2 1.581 1.581 3.236-.764 1-3-1-1-1.789-2.105 0-3 2-1 2.5-5 0-4-3.344 1.338-8 3.161-8 0v-4s-1.359-.364-1.791-2.983l-.188-.006s-.561 3.494-2.821.008l-.212.002s.86 2.616-.65 3.77c-.101.076.662 1.209.662 3.209z"/><path d="M26.043 18.888c-1.122.561-1.23 1.205-.908 1.854.159-.253.446-.498.908-.729 1.251-.625 1.915-2.424 1.625-3.439-.187.902-.766 1.885-1.625 2.314zm-5 12c-2 0-3-3-5-3s-1 3-4 3-2-5-4-4c-1.08.54-1.853.773-2.192.572-.611 1.526.362 1.468 2.192.553 2-1 1 4 4 4s2-3 4-3 3 3 5 3c1.421 0 2.106-1.222 1.828-2.496-.209.783-.844 1.371-1.828 1.371zm4-6c-1-1-4 1-3 2 .014.014.021.03.034.044.613-.86 2.271-1.614 2.966-.919 1.191 1.191 2.422.154 2.003-1.385-.266.814-1.143 1.12-2.003.26z" fill="#A0041E"/><path fill="#DD2E44" d="M35.85 15.69s-.423-.21-.785.319c-.072.107-.132.172-.132.172.041.072.027.15.005.217-.13.398-.472.696-1.126.79-.272.039-.49.087-.684.138l.019-.605-.65-.021-.028.874c-.296.17-.39.348-.434.481-.096.292.556.637.963.771.368.121.688.175.91.182.245.007 1.136.225 1.136.225l.088-.269s-.72-.335-.966-.446c-.198-.09-.079-.582.224-.635.805-.141.997-.076 1.12-.454l.448-1.375c.083-.248-.108-.364-.108-.364z"/><path fill="#FFDC5D" d="M12.386 9.254a.882.882 0 0 0-.34-.161 1.158 1.158 0 0 0-.547.013c-.39.097-.964.206-1.572.322-.83.158-1.931.476-2.229.476s-1.515-.391-2.634-.537c-.37-.048-1.552-.165-1.804-.193-.342-.038-.756-.08-1.073-.15-.146-.032-.713-.184-.943-.225-.436-.078-1.161-.115-1.202-.03-.176.368.763.233 1.538.913.454.398.916.381 1.355.349.347-.025 1.447.573 2.326.841.635.194 2.056.533 2.26.562s1.296-.052 2.023-.11c.735-.057 1.371-.107 1.879-.075.485.031.849-.079 1.083-.326.292-.309.286-.742.278-.867-.024-.339-.165-.624-.398-.802zm11.198 1.335c-.168-.229-.565-.565-1.412-.8-.657-.183-3.994-.629-4.649-.707-.508-.061-.197 1.809.06 1.966.165.101.365.11.667.141 1.223.126 3.062.028 3.392-.005.143-.014.209.038.218.129-.063.29-.287.669-.477 1.104-.318.727-.656 1.714-.778 1.827l-.111.101a1.862 1.862 0 0 0-.815.391.749.749 0 0 0-.252.364c-.094.268.17.299.234.138a.353.353 0 0 1 .239-.221c-.005.031-.015.057-.016.093-.002.058-.017.106-.027.158-.228.395-.682.553-.651.706.007.033.048.035.08.044-.154.104-.274.176-.264.256.008.065.08.08.178.071-.071.053-.117.1-.111.149.026.209.556-.116.81-.219.433-.176.686-.36.986-.636.349-.322.518-.787.669-1.045.111-.19 1.441-1.807 1.736-2.348.435-.798.462-1.428.294-1.657z"/></svg><svg viewBox="0 0 36 36" width="16" height="16" id="0080_1f30d" x="112" xmlns="http://www.w3.org/2000/svg"><circle fill="#88C9F9" cx="18" cy="18" r="18"/><path fill="#5C913B" d="M25.716 1.756c-1.022.568-1.872 1.528-3.028 1.181-1.875-.562-4.375-1.812-6-.25s-2 3 0 2.938 3.375-2.438 4.375-1.438.749 1.813-1.625 2.125S14.5 7 13.125 7s-1.688.812-.75 1.688-.563.937-2.125 1.812.375 1.25 1.688 2 2.312-.188 2.875-1.438 2.981-2.75 3.99-2.562c1.01.188 1.01.688.822 1.562s.75.625.812-.375 1.188-1.75 2.062-1.812 1.625 1.188.625 1.812-2 1.125-.75 1.438 2.125 1.938.688 2.625-3.937 1.125-5.062.562-3.688-1.375-4.375-.938-1.062.89-1.875 1.195c-.812.305-4.125 1.805-4.188 3.743S7.438 22.438 8.75 22.5s4.5-.812 5.5-1.625 2.375-.625 2.812.312.125 1.5-.312 3 .286 2.25.987 3.562c.701 1.312 1.263 2.062 1.263 3s1 1.875 2.5.312 2.875-4.625 3.5-5.75 1.125-3.625 1.875-4.125 1.938-1.688 1.062-1.5-2.625-.062-3.062-1.312-2.312-3.625-1.438-3.875 1.875 1.39 2.25 2.164c.375.774.875 1.711 1.625 1.961s2.375-1.673 2.875-1.961c.5-.289.125-1.476-.875-1.351s-2.312 0-2.312-.624 1.25-1.438 2.25-1.25 1.75.5 2.375 1.25 1.875 2.125 2.375 3 .875 1 1.125-.562c.166-1.038.387-1.609.59-2.222-1.013-5.829-4.82-10.683-9.999-13.148z"/></svg><svg viewBox="0 0 36 36" width="16" height="16" id="0090_1f449" x="128" xmlns="http://www.w3.org/2000/svg"><path fill="#FFDC5D" d="M15.856 31s2.394-.208 3.068-1.792c.697-1.639-.622-2.309-.622-2.309s1.914.059 2.622-1.941c.668-1.885-.958-2.75-.958-2.75s1.871-.307 2.417-2.292C22.842 18.245 21.216 17 21.216 17h12.208c.959 0 2.575-.542 2.576-2.543.002-2-1.659-2.457-2.576-2.457h-20.5c-1 0-1-1 0-1h2.666c3.792 0 6.143-2.038 6.792-2.751.65-.713.979-1.667.734-2.82-.415-1.956-1.92-1.529-3.197-.975-3.078 1.337-7.464 2.254-9.538 2.533C4.523 7.778.006 12.796 0 18.871-.004 25.497 5.298 30.995 11.924 31h3.932z"/></svg><svg viewBox="0 0 36 36" width="16" height="16" id="0100_1f608" x="144" xmlns="http://www.w3.org/2000/svg"><circle fill="#AA8DD8" cx="18" cy="18" r="18"/><path fill="#AA8DD8" d="M10 4C7.42 4 4.369 1.534 3.414.586A1.998 1.998 0 0 0 1.235.153 1.998 1.998 0 0 0 0 2c0 3.459 1.672 10 8 10a2 2 0 0 0 1.789-1.106l2-4A1.999 1.999 0 0 0 10 4zM34.766.153a1.996 1.996 0 0 0-2.18.434C31.7 1.472 28.589 4 26 4a1.999 1.999 0 0 0-1.789 2.895l2 4A2 2 0 0 0 28 12c6.328 0 8-6.541 8-10 0-.809-.487-1.538-1.234-1.847z"/><path fill="#553986" d="M27.335 25.629a.501.501 0 0 0-.635-.029c-.039.029-3.922 2.9-8.7 2.9-4.766 0-8.662-2.871-8.7-2.9a.5.5 0 1 0-.729.657C8.7 26.472 11.788 31.5 18 31.5s9.301-5.028 9.429-5.243a.499.499 0 0 0-.094-.628zm-11.628-7.336C12.452 15.038 7.221 15 7 15a1 1 0 0 0-.001 2c.029 0 1.925.022 3.983.737-.593.64-.982 1.634-.982 2.763 0 1.934 1.119 3.5 2.5 3.5s2.5-1.566 2.5-3.5c0-.174-.019-.34-.037-.507.013 0 .025.007.037.007a.999.999 0 0 0 .707-1.707zM29 15c-.221 0-5.451.038-8.707 3.293A.999.999 0 0 0 21 20c.013 0 .024-.007.036-.007-.016.167-.036.333-.036.507 0 1.934 1.119 3.5 2.5 3.5s2.5-1.566 2.5-3.5c0-1.129-.389-2.123-.982-2.763A13.928 13.928 0 0 1 29.002 17 1 1 0 0 0 29 15z"/></svg><svg viewBox="0 0 36 36" width="16" height="16" id="0110_1f601" x="160" xmlns="http://www.w3.org/2000/svg"><path fill="#FFCC4D" d="M36 18c0 9.941-8.059 18-18 18-9.94 0-18-8.059-18-18C0 8.06 8.06 0 18 0c9.941 0 18 8.06 18 18"/><path fill="#664500" d="M16 18c-.419 0-.809-.265-.949-.684C14.848 16.717 14.034 15 13 15c-1.062 0-1.888 1.827-2.051 2.316a1 1 0 1 1-1.897-.633C9.177 16.307 10.356 13 13 13s3.823 3.307 3.949 3.684A1 1 0 0 1 16 18zm10 0a.999.999 0 0 1-.948-.684C24.849 16.717 24.033 15 23 15c-1.062 0-1.889 1.827-2.052 2.316a1 1 0 0 1-1.897-.633C19.177 16.307 20.355 13 23 13s3.823 3.307 3.948 3.684A1 1 0 0 1 26 18zm-8 4c-3.623 0-6.027-.422-9-1-.679-.131-2 0-2 2 0 4 4.595 9 11 9 6.404 0 11-5 11-9 0-2-1.321-2.132-2-2-2.973.578-5.377 1-9 1z"/><path fill="#FFF" d="M9 23s3 1 9 1 9-1 9-1-1.344 6.75-9 6.75S9 23 9 23z"/><path fill="#664500" d="M18 27.594c-3.596 0-6.272-.372-7.937-.745l-.825-1.871c.823.312 3.889.897 8.763.897 4.954 0 8.037-.616 8.864-.938l-.701 1.842c-1.634.38-4.419.815-8.164.815z"/></svg><svg viewBox="0 0 36 36" width="16" height="16" id="0120_1f44d" x="176" xmlns="http://www.w3.org/2000/svg"><path fill="#FFDB5E" d="M34.956 17.916c0-.503-.12-.975-.321-1.404-1.341-4.326-7.619-4.01-16.549-4.221-1.493-.035-.639-1.798-.115-5.668.341-2.517-1.282-6.382-4.01-6.382-4.498 0-.171 3.548-4.148 12.322-2.125 4.688-6.875 2.062-6.875 6.771v10.719c0 1.833.18 3.595 2.758 3.885C8.195 34.219 7.633 36 11.238 36h18.044a3.337 3.337 0 0 0 3.333-3.334c0-.762-.267-1.456-.698-2.018 1.02-.571 1.72-1.649 1.72-2.899 0-.76-.266-1.454-.696-2.015 1.023-.57 1.725-1.649 1.725-2.901 0-.909-.368-1.733-.961-2.336a3.311 3.311 0 0 0 1.251-2.581z"/><path fill="#EE9547" d="M23.02 21.249h8.604c1.17 0 2.268-.626 2.866-1.633a.876.876 0 0 0-1.506-.892 1.588 1.588 0 0 1-1.361.775h-8.81c-.873 0-1.583-.71-1.583-1.583s.71-1.583 1.583-1.583H28.7a.875.875 0 0 0 0-1.75h-5.888a3.337 3.337 0 0 0-3.333 3.333c0 1.025.475 1.932 1.205 2.544a3.32 3.32 0 0 0-.998 2.373c0 1.028.478 1.938 1.212 2.549a3.318 3.318 0 0 0 .419 5.08 3.305 3.305 0 0 0-.852 2.204 3.337 3.337 0 0 0 3.333 3.333h5.484a3.35 3.35 0 0 0 2.867-1.632.875.875 0 0 0-1.504-.894 1.594 1.594 0 0 1-1.363.776h-5.484c-.873 0-1.583-.71-1.583-1.583s.71-1.583 1.583-1.583h6.506a3.35 3.35 0 0 0 2.867-1.633.875.875 0 1 0-1.504-.894 1.572 1.572 0 0 1-1.363.777h-7.063a1.585 1.585 0 0 1 0-3.167h8.091a3.35 3.35 0 0 0 2.867-1.632.875.875 0 0 0-1.504-.894 1.573 1.573 0 0 1-1.363.776H23.02a1.585 1.585 0 0 1 0-3.167z"/></svg><svg viewBox="0 0 36 36" width="16" height="16" id="0130_1f388" x="192" xmlns="http://www.w3.org/2000/svg"><path fill="#FCAB40" d="M27.999 36a1 1 0 0 1-.969-.758c-.036-.136-.926-3.436-4.273-4.272C18.054 29.794 18 23.277 18 23a1 1 0 0 1 .998-.999c.554.034 1 .445 1.002.997 0 .053.054 5.234 3.242 6.032 4.53 1.132 5.682 5.54 5.727 5.728a.998.998 0 0 1-.97 1.242z"/><path fill="#BB1A34" d="M18 25c-1.1 0-1.598-.805-1.105-1.789l1.211-2.422c.492-.984 1.297-.984 1.789 0l1.211 2.422C21.598 24.195 21.1 25 20 25h-2z"/><path fill="#BB1A34" d="M28 9c0 6-7 12-9 12s-9-6-9-12c0-5.799 4.582-9 9-9s9 3.201 9 9z"/><path fill="#FCAB40" d="M20 22h-2a1 1 0 1 1 0-2h2a1 1 0 1 1 0 2z"/></svg><svg viewBox="0 0 36 36" width="16" height="16" id="0140_1f3c3-200d-2640-fe0f" x="208" xmlns="http://www.w3.org/2000/svg"><path fill="#FFDC5D" d="M13.483 21.579c-.58.32-2.256 1.279-3.282 2.204-.596.537-.518.928-.329 1.871l.017.085c.186.932 2.106 7.039 2.483 8.232l1.168-.291c.014-.621.043-2.801-.18-4.205-.074-.47-.149-1.036-.217-1.549a29.243 29.243 0 0 0-.184-1.273c-.077-.396.05-.65.411-.825a51.996 51.996 0 0 1 1.764-.814l-1.651-3.435zm10.673 5.408c-.533-.065-1.037-.128-1.278-.143-.403-.025-.618-.212-.695-.606a54.492 54.492 0 0 1-.345-1.912l-3.74.733c.164.643.671 2.505 1.308 3.732.369.711.767.734 1.726.789l.088.005c.95.057 7.342-.266 8.593-.33l.013-1.205c-.597-.169-2.699-.746-4.114-.885a52.558 52.558 0 0 1-1.556-.178z"/><path fill="#8899A6" d="M28.11 29.77l-.166-.306a.091.091 0 0 1 .054-.123c.16-.055.483-.203.596-.262-.098.224-.21.582-.335.69-.048.041-.124.059-.149.001z"/><path fill="#BE1931" d="M30.53 27.396c-.13-.104-.427-.155-.613-.173a5.958 5.958 0 0 0-.746-.007 2.007 2.007 0 0 0-.331.04c-.185.054-.266.131-.31.185-.053.065-.058.134-.046.169.049.143.284.39.386.625a.465.465 0 0 1 .047.226c-.025.258-.354.633-.6.911-.148.167-.266.299-.271.35a.252.252 0 0 0 .035.148v.002c.067.123.214.251.314.587.065.217.369 1.205.369 1.205.073.252.17.313.211.449.085.277.235 1.021.309 1.256a.489.489 0 0 0 .39.355c.138.019.217-.013.217-.013s.322-.145.535-1.352c.154-.872.018-1.007-.098-2.317-.114-1.312.202-2.646.202-2.646z"/><path fill="#DD2E44" d="M30.261 29.344c-.219-.09-.72-.42-.86-.775-.127-.321-.213-1.188-.229-1.353.269-.024.682-.006.815.006.175.017.377.031.498.134l.046.04a49.02 49.02 0 0 0-.27 1.948z"/><path fill="#CCD6DD" d="M28.337 30.337a.2.2 0 0 1-.086-.381l.319-.151a.2.2 0 1 1 .172.361l-.319.151a.193.193 0 0 1-.086.02zm.204.584a.199.199 0 0 1-.19-.139.199.199 0 0 1 .13-.251l.354-.113a.2.2 0 0 1 .121.381l-.354.113a.21.21 0 0 1-.061.009zm.172.595a.199.199 0 0 1-.196-.16.201.201 0 0 1 .156-.236l.332-.068a.197.197 0 0 1 .236.156.201.201 0 0 1-.156.236l-.332.068c-.014.002-.027.004-.04.004zm2.59-3.873c-.006-.027-.025-.128-.095-.252-.023-.042-.077-.055-.131-.061-.067-.009-.56-.08-.569.02 0 0-.002.148-.072.25-.07.102-.118.352-.136.539-.018.186-.098.887-.08 1.379.018.492.17 1.383.178 1.68.007.297 0 .759-.063 1.101-.063.342-.131.646-.183.834a1.782 1.782 0 0 1-.26.578s.389-.026.687-.602c.235-.454.367-.891.416-1.317.004-.032.105-1.168.154-1.736.035-.415.095-1.078.095-1.078.075-.786.093-1.185.059-1.335z"/><path fill="#8899A6" d="M11.438 32.516l.246-.246a.092.092 0 0 1 .134.017c.098.138.332.406.421.497-.243-.03-.618-.036-.757-.125-.054-.035-.093-.103-.044-.143z"/><path fill="#BE1931" d="M14.401 34.162c.063-.154.027-.453-.008-.637a6.17 6.17 0 0 0-.205-.717 2.09 2.09 0 0 0-.132-.306.573.573 0 0 0-.266-.244c-.077-.033-.145-.018-.175.004-.123.088-.294.383-.489.548a.464.464 0 0 1-.204.109c-.254.049-.707-.159-1.044-.317-.202-.094-.362-.17-.412-.16a.254.254 0 0 0-.132.075l-.002.001h.001c-.099.099-.18.277-.474.468-.189.123-1.051.696-1.051.696-.221.141-.252.252-.37.33-.242.16-.912.515-1.117.653a.49.49 0 0 0-.156.679s.23.268 1.448.129c.88-.1.97-.269 2.194-.752s2.594-.559 2.594-.559z"/><path fill="#DD2E44" d="M12.457 34.457c.024-.236.198-.809.499-1.045.271-.212 1.079-.542 1.232-.604.1.251.2.652.225.783.033.173.078.37.013.516l-.025.056c0-.001-1.38.184-1.944.294z"/><path fill="#CCD6DD" d="M11.385 33.301a.197.197 0 0 1-.149-.067L11 32.971a.2.2 0 0 1 .299-.266l.235.263a.2.2 0 0 1-.149.333zm-.529.406a.2.2 0 0 1-.165-.088l-.209-.308a.2.2 0 1 1 .33-.225l.209.308a.2.2 0 0 1-.165.313zm-.57.325a.2.2 0 0 1-.177-.106l-.159-.299a.2.2 0 1 1 .354-.188l.159.299a.2.2 0 0 1-.177.294zm4.098.941c.024-.013.116-.06.215-.162.033-.034.031-.089.022-.143-.011-.067-.083-.559-.181-.54 0 0-.143.04-.26.002-.117-.038-.371-.013-.555.022-.184.036-.878.158-1.345.315-.467.157-1.277.556-1.56.648-.283.091-.728.215-1.074.252-.346.037-.657.058-.851.062a1.775 1.775 0 0 1-.628-.085s.136.366.772.488c.502.097.959.099 1.381.025.032-.006 1.15-.231 1.708-.346.408-.084 1.06-.215 1.06-.215.774-.151 1.162-.247 1.296-.323z"/><path fill="#A0041E" d="M13.084 21.466c.738-.382 3.176-1.588 4.842-1.76.152-.016 1.526 3.904 1.341 3.963-.763.246-2.681.897-4.134 1.668a.334.334 0 0 1-.433-.09c-.431-.605-1.549-2.257-1.798-3.436-.029-.138.048-.276.182-.345z"/><path fill="#BE1931" d="M17.882 25.364c-.196-.795-.794-3.411-.586-5.049.019-.15 3.69-.685 3.69-.685.175-.021.6 3.084 1.005 4.655.043.166-.033.334-.181.395-.667.275-2.474.969-3.643.937-.136-.004-.249-.11-.285-.253z"/><path fill="#FFDC5D" d="M14.801 11.245c-.114.64.259 1.431 1.738 1.741 1.479.31 2.554.273 3.324.218.653-.047.563.952.711 1.998.148 1.05.241 2.419.182 2.633-.1.361-.722.479-.439 1.123.283.643.329.995.942.79.613-.205 1.222-.427 1.396-.759.174-.332-.43-1.065-.439-1.463-.007-.294.293-3.972.275-4.405-.022-.528-.035-1.251-.884-1.582-.849-.331-4.108-1.174-4.972-1.342-.912-.177-1.683.199-1.834 1.048z"/><path fill="#FFDC5D" d="M16.495 6.612a3.41 3.41 0 0 0 .661-1.455c.409-2.083-.794-4.073-2.688-4.444-1.893-.372-4.483 1.029-4.425 3.151.057 2.107 1.229 5.214 2.993 4.69.466-.138.932-.29 1.375-.474.189.224.325 1.081.247 1.815-.2 1.87 2.381 2.065 2.579.192.157-1.482-.768-2.424-.742-3.475z"/><path fill="#FFAC33" d="M21.903 2.733c-1.311-.014-2.496-1.36-3.845-.501a2.826 2.826 0 0 0-.604.503c-.234-.711-.636-1.367-1.299-1.798C15.507.515 14.712.2 13.961.285 9.384.801 9.632 4.111 9.98 4.421c.348.31 1.299-.572 2.002-.669.328-.046 1.041-.053 1.419.49.306.44.411 1.33.411 1.33s.012-1.012.041-1.368c.027-.332.356-.714.801-.222.387.428.19 1.268-.079 1.356-.207.068.129.575.648.961.946.704 1.681.428 1.786.389.106-.039.465-.118.648-1.333.026-.169.044-.35.055-.537.374.324.987.709 1.827.715.929.007 2.619-.466 3.586-1.621.744-.889 1.05-2.355 1.05-2.355-.395.738-1.283 1.187-2.272 1.176z"/><path fill="#DD2E44" d="M19.624 10.939c-.728-1.703-1.783-2.597-3.229-2.114-1.285.43-1.922 1.151-2.301 1.96-.184.393-.901 1.933-.466 2.933.851 1.956 2.243 5.863 2.488 7.059 0 0 .322.326 2.403.064 1.823-.23 2.732-.404 2.732-.404-.277-2.594-.452-6.747-1.627-9.498z"/><path fill="#FFDC5D" d="M17.202 11.067c-.577-.372-1.499-.331-2.404.983a12.014 12.014 0 0 0-1.568 3.148c-.221.655-1.157.16-2.236-.122-1.083-.284-2.455-.752-2.639-.897-.311-.245-.172-.898-.914-.886-.742.013-1.103-.086-1.153.595-.05.681-.083 1.364.17 1.669.253.305 1.212.016 1.604.169.289.113 3.749 1.905 4.178 2.064.524.194 1.233.476 1.901-.216.668-.692 2.819-3.522 3.335-4.296.543-.814.491-1.718-.274-2.211z"/></svg><svg viewBox="0 0 36 36" width="16" height="16" id="0150_1f49e" x="224" xmlns="http://www.w3.org/2000/svg"><path fill="#F4ABBA" d="M35.977 16.672c-.25 4.574-8.194 8.248-17.977 8.248-3.285 0-6.352-.422-9-1.145v3.588c2.65 1.023 5.718 1.619 9 1.619 9.941 0 18-5.373 18-12 0-.104-.02-.207-.023-.31zM27 6.6c-2.646-1.024-5.717-1.617-9-1.617-9.018 0-16.465 4.426-17.774 10.194C1.535 11.106 8.982 7.982 18 7.982c3.283 0 6.354.418 9 1.142V6.6z"/><path fill="#DD2E44" d="M24.77 19.715a6.8 6.8 0 0 0-6.801-6.801 6.788 6.788 0 0 0-5.526 2.845 6.789 6.789 0 0 0-5.526-2.845 6.8 6.8 0 0 0-6.801 6.801c0 .531.067 1.049.183 1.545.945 5.867 7.468 12.059 12.144 13.758 4.675-1.699 11.2-7.891 12.142-13.756a6.76 6.76 0 0 0 .185-1.547zM35.885 5.693A4.71 4.71 0 0 0 31.174.982c-1.579 0-2.973.78-3.828 1.972A4.705 4.705 0 0 0 23.519.982a4.71 4.71 0 0 0-4.711 4.711c0 .369.047.727.127 1.07.654 4.064 5.173 8.353 8.411 9.529 3.238-1.177 7.758-5.465 8.412-9.528.08-.344.127-.702.127-1.071z"/></svg><svg viewBox="0 0 36 36" width="16" height="16" id="0160_1f50e" x="240" xmlns="http://www.w3.org/2000/svg"><path fill="#9AAAB4" d="M13.503 19.693l2.828 2.828-4.95 4.95-2.828-2.829z"/><path fill="#66757F" d="M1.257 29.11l5.88-5.879a2 2 0 0 1 2.828 0l2.828 2.828a2 2 0 0 1 0 2.828l-5.879 5.879a4 4 0 1 1-5.657-5.656z"/><circle fill="#8899A6" cx="22.355" cy="13.669" r="13.5"/><circle fill="#BBDDF5" cx="22.355" cy="13.669" r="9.5"/></svg><svg viewBox="0 0 36 36" width="16" height="16" id="0200_right-triangle" x="256" xmlns="http://www.w3.org/2000/svg"><path fill="#fff" d="M6 4l20 12L6 28z"/></svg><svg viewBox="0 0 36 36" width="16" height="16" id="0210_cloud" x="272" xmlns="http://www.w3.org/2000/svg"><path fill="#fff" d="M32 20.548a5.452 5.452 0 0 0-4.156-5.296A7.438 7.438 0 0 0 20.411 8a7.42 7.42 0 0 0-5.839 2.835 4.168 4.168 0 0 0-3.303-1.624 4.177 4.177 0 0 0-4.133 4.771 6.056 6.056 0 0 0-7.134 5.96A6.056 6.056 0 0 0 6.056 26h20.508a5.45 5.45 0 0 0 5.438-5.451z"/></svg></svg>