<?xml version="1.0" encoding="UTF-8" standalone="no"?><!-- Generator: Gravit.io --><svg xmlns="http://www.w3.org/2000/svg" xmlns:xlink="http://www.w3.org/1999/xlink" style="isolation:isolate" viewBox="827.5 1489 480 480" width="480pt" height="480pt"><defs><clipPath id="_clipPath_XIzTgs5mJRqszoETF44bE7mLTR3UH6tt"><rect x="-426" y="1066" width="1882" height="1137"/></clipPath></defs><g clip-path="url(#_clipPath_XIzTgs5mJRqszoETF44bE7mLTR3UH6tt)"><g><g style="mix-blend-mode:normal;" opacity="0.62"><path d="M 852.846 1324 L 1282.154 1324 C 1304.697 1324 1323 1342.303 1323 1364.846 L 1323 2156.154 C 1323 2178.697 1304.697 2197 1282.154 2197 L 852.846 2197 C 830.303 2197 812 2178.697 812 2156.154 L 812 1364.846 C 812 1342.303 830.303 1324 852.846 1324 Z" style="fill:none;stroke:#D3D3D3;stroke-width:12;stroke-linecap:square;stroke-miterlimit:2;"/></g><text transform="matrix(1,0,0,1,874.49,2063.944)" style="font-family:'Open Sans';font-weight:400;font-size:37px;font-style:normal;fill:#000000;stroke:none;">Host </text><text transform="matrix(1,0,0,1,964.461,2063.944)" style="font-family:'Open Sans';font-weight:700;font-size:37px;font-style:normal;fill:#000000;stroke:none;">your own site </text><text transform="matrix(1,0,0,1,1224.87,2063.944)" style="font-family:'Open Sans';font-weight:400;font-size:37px;font-style:normal;fill:#000000;stroke:none;">at </text><text transform="matrix(1,0,0,1,899.675,2114.331)" style="font-family:'Open Sans';font-weight:700;font-size:37px;font-style:normal;fill:#000000;stroke:none;">your own domain</text><text transform="matrix(1,0,0,1,1223.479,2114.331)" style="font-family:'Open Sans';font-weight:400;font-size:37px;font-style:normal;fill:#000000;stroke:none;">.</text><text transform="matrix(1,0,0,1,947.218,1432.422)" style="font-family:'Open Sans';font-weight:300;font-size:60px;font-style:normal;fill:#000000;stroke:none;">One site.</text></g><g><g style="mix-blend-mode:normal;" opacity="0.62"><path d="M 292.846 1324 L 722.154 1324 C 744.697 1324 763 1342.303 763 1364.846 L 763 2156.154 C 763 2178.697 744.697 2197 722.154 2197 L 292.846 2197 C 270.303 2197 252 2178.697 252 2156.154 L 252 1364.846 C 252 1342.303 270.303 1324 292.846 1324 Z" style="fill:none;stroke:#D3D3D3;stroke-width:12;stroke-linecap:square;stroke-miterlimit:2;"/></g><text transform="matrix(1,0,0,1,298.232,2064.944)" style="font-family:'Open Sans';font-weight:400;font-size:37px;font-style:normal;fill:#000000;stroke:none;">Sync and deploy to </text><text transform="matrix(1,0,0,1,633.779,2064.944)" style="font-family:'Open Sans';font-weight:700;font-size:37px;font-style:normal;fill:#000000;stroke:none;">your </text><text transform="matrix(1,0,0,1,425.536,2115.331)" style="font-family:'Open Sans';font-weight:700;font-size:37px;font-style:normal;fill:#000000;stroke:none;">own VPS</text><text transform="matrix(1,0,0,1,581.702,2115.331)" style="font-family:'Open Sans';font-weight:400;font-size:37px;font-style:normal;fill:#000000;stroke:none;">.</text><text transform="matrix(1,0,0,1,346.465,1432.764)" style="font-family:'Open Sans';font-weight:300;font-size:60px;font-style:normal;fill:#000000;stroke:none;">One server.</text></g><g><g style="mix-blend-mode:normal;" opacity="0.62"><path d="M -267.154 1324 L 162.154 1324 C 184.697 1324 203 1342.303 203 1364.846 L 203 2156.154 C 203 2178.697 184.697 2197 162.154 2197 L -267.154 2197 C -289.697 2197 -308 2178.697 -308 2156.154 L -308 1364.846 C -308 1342.303 -289.697 1324 -267.154 1324 Z" style="fill:none;stroke:#D3D3D3;stroke-width:12;stroke-linecap:square;stroke-miterlimit:2;"/></g><text transform="matrix(1,0,0,1,-226.396,2063.944)" style="font-family:'Open Sans';font-weight:400;font-size:37px;font-style:normal;fill:#000000;stroke:none;">Develop and test on </text><text transform="matrix(1,0,0,1,-209.269,2114.331)" style="font-family:'Open Sans';font-weight:700;font-size:37px;font-style:normal;fill:#000000;stroke:none;">your own device</text><text transform="matrix(1,0,0,1,92.422,2114.331)" style="font-family:'Open Sans';font-weight:400;font-size:37px;font-style:normal;fill:#000000;stroke:none;">.</text><text transform="matrix(1,0,0,1,-220.756,1432.422)" style="font-family:'Open Sans';font-weight:300;font-size:60px;font-style:normal;fill:#000000;stroke:none;">One person.</text></g><g><g><rect x="890.662" y="1569.205" width="353.827" height="293.795" transform="matrix(1,0,0,1,0,0)" fill="rgb(230,230,230)"/><rect x="912.257" y="1603.194" width="310.629" height="236.566" transform="matrix(1,0,0,1,0,0)" fill="rgb(255,255,255)" vector-effect="non-scaling-stroke" stroke-width="4" stroke="rgb(47,46,65)" stroke-linejoin="miter" stroke-linecap="butt" stroke-miterlimit="2"/><rect x="890.511" y="1569" width="353.827" height="15.378" transform="matrix(1,0,0,1,0,0)" fill="rgb(70,107,106)"/><ellipse vector-effect="non-scaling-stroke" cx="901.6814981599689" cy="1576.861927348326" rx="3.017381787296131" ry="3.0868167591886504" fill="rgb(255,255,255)"/><ellipse vector-effect="non-scaling-stroke" cx="912.2566092966765" cy="1576.861927348326" rx="3.017381787296131" ry="3.0868167591886504" fill="rgb(255,255,255)"/><ellipse vector-effect="non-scaling-stroke" cx="922.83172043338" cy="1576.861927348326" rx="3.017381787296131" ry="3.0868167591886504" fill="rgb(255,255,255)"/></g><g><path d=" M 1089.183 1747.239 C 1077.796 1755.557 1067.287 1765.544 1067.036 1786.666 L 1067.036 1786.666 L 1057.051 1786.666 C 1056.587 1769.7 1052.982 1753.907 1046.338 1739.426 L 1055.894 1736.505 L 1055.892 1736.515 L 1055.894 1736.505 C 1059.437 1744.532 1062.136 1752.91 1063.945 1761.512 C 1069.766 1750.257 1078.556 1742.242 1087.297 1736.616 L 1089.183 1747.239 L 1089.183 1747.239 Z " fill="rgb(144,67,7)"/><path d=" M 1089.252 1747.188 C 1093.216 1749.485 1107.044 1756.797 1121.927 1756.797 C 1126.65 1756.797 1131.513 1756.062 1136.156 1754.181 C 1157.745 1745.509 1165.878 1716.357 1166.225 1715.125 L 1167.217 1711.423 L 1164.02 1709.421 C 1162.954 1708.766 1137.573 1693.063 1116.004 1701.754 C 1099.064 1708.589 1090.431 1727.958 1087.333 1736.591 L 1089.183 1747.239 C 1089.229 1747.204 1089.206 1747.221 1089.183 1747.239 L 1089.252 1747.188 Z " fill="rgb(164,199,118)"/><path d=" M 1055.894 1736.505 L 1056.223 1734.554 C 1056.53 1732.713 1063.519 1689.044 1040.616 1665.355 C 1026.292 1650.54 1004.219 1647.609 989.235 1647.549 L 989.235 1647.549 C 980.25 1647.508 973.808 1648.517 973.127 1648.639 L 969.624 1649.21 L 969.024 1652.775 C 968.713 1654.637 961.723 1698.306 984.646 1721.999 C 999.108 1736.931 1021.47 1739.78 1036.454 1739.78 C 1040.344 1739.78 1043.694 1739.603 1046.311 1739.364 C 1046.331 1739.405 1046.321 1739.385 1046.311 1739.364 L 1055.894 1736.505 L 1055.894 1736.505 Z " fill="rgb(164,199,118)"/></g></g><g><g><ellipse vector-effect="non-scaling-stroke" cx="461.9715277777773" cy="1801.0578240740708" rx="63.2817129629633" ry="61.666740740741034" fill="rgb(230,230,230)"/><ellipse vector-effect="non-scaling-stroke" cx="476.0023148148164" cy="1906.2257314814801" rx="52.11435185185212" ry="50.77426851851874" fill="rgb(230,230,230)"/><ellipse vector-effect="non-scaling-stroke" cx="404.9893518518537" cy="1858.8990277777734" rx="52.11435185185212" ry="50.7857222222226" fill="rgb(230,230,230)"/><ellipse vector-effect="non-scaling-stroke" cx="617.4555555555542" cy="1855.4629166666664" rx="44.66944444444471" ry="43.53552777777804" fill="rgb(230,230,230)"/><ellipse vector-effect="non-scaling-stroke" cx="557.896296296297" cy="1890.5799722222223" rx="44.66944444444471" ry="43.53552777777804" fill="rgb(230,230,230)"/><ellipse vector-effect="non-scaling-stroke" cx="561.6187500000012" cy="1820.895638888888" rx="48.39189814814847" ry="47.14344444444464" fill="rgb(230,230,230)"/><ellipse vector-effect="non-scaling-stroke" cx="506.9273148148187" cy="1848.957212962957" rx="52.11435185185212" ry="50.7857222222226" fill="rgb(230,230,230)"/></g><g><g><path d=" M 522.11 1564.66 C 514.437 1570.139 507.356 1576.717 507.187 1590.628 L 507.187 1590.628 L 500.459 1590.628 C 500.147 1579.454 497.718 1569.052 493.241 1559.515 L 499.68 1557.591 L 499.678 1557.597 L 499.68 1557.591 C 502.067 1562.877 503.886 1568.395 505.105 1574.061 C 509.027 1566.648 514.949 1561.369 520.839 1557.664 L 522.11 1564.66 L 522.11 1564.66 Z " fill="rgb(144,67,7)"/><path d=" M 522.156 1564.627 C 524.827 1566.14 534.145 1570.955 544.173 1570.955 C 547.355 1570.955 550.632 1570.472 553.76 1569.233 C 568.307 1563.521 573.786 1544.321 574.02 1543.509 L 574.689 1541.071 L 572.534 1539.752 C 571.816 1539.321 554.715 1528.978 540.181 1534.702 C 528.767 1539.204 522.951 1551.961 520.863 1557.647 L 522.11 1564.66 C 522.141 1564.637 522.125 1564.649 522.11 1564.66 L 522.156 1564.627 Z " fill="rgb(164,199,118)"/><path d=" M 499.68 1557.591 L 499.901 1556.305 C 500.109 1555.093 504.818 1526.331 489.386 1510.728 C 479.734 1500.971 464.861 1499.04 454.766 1499.001 L 454.766 1499.001 C 448.711 1498.974 444.371 1499.638 443.912 1499.719 L 441.552 1500.095 L 441.148 1502.443 C 440.938 1503.669 436.228 1532.432 451.673 1548.037 C 461.418 1557.871 476.486 1559.747 486.581 1559.747 C 489.203 1559.747 491.459 1559.631 493.223 1559.474 C 493.236 1559.501 493.23 1559.488 493.223 1559.474 L 499.68 1557.591 L 499.68 1557.591 Z " fill="rgb(164,199,118)"/></g><rect x="401.768" y="1624.124" width="211.464" height="157.387" transform="matrix(0,1,-1,0,2210.317,1195.317)" fill="rgb(47,46,65)"/><rect x="401.768" y="1590.628" width="211.464" height="83.94" transform="matrix(1,0,0,1,0,0)" fill="rgb(70,107,106)"/><rect x="401.768" y="1684.254" width="211.464" height="83.94" transform="matrix(1,0,0,1,0,0)" fill="rgb(204,204,204)"/><rect x="401.768" y="1777.879" width="211.464" height="83.94" transform="matrix(1,0,0,1,0,0)" fill="rgb(204,204,204)"/><rect x="401.768" y="1626.219" width="211.464" height="12.914" transform="matrix(1,0,0,1,0,0)" fill="rgb(164,199,118)"/><rect x="401.768" y="1719.844" width="211.464" height="12.914" transform="matrix(1,0,0,1,0,0)" fill="rgb(166,166,170)"/><rect x="401.768" y="1813.47" width="211.464" height="12.914" transform="matrix(1,0,0,1,0,0)" fill="rgb(166,166,170)"/><circle vector-effect="non-scaling-stroke" cx="572.0691691209885" cy="1602.7351315961632" r="4.842687684074235" fill="rgb(164,199,118)"/><circle vector-effect="non-scaling-stroke" cx="589.0185760152486" cy="1602.7351315961632" r="4.842687684074235" fill="rgb(164,199,118)"/><circle vector-effect="non-scaling-stroke" cx="605.9679829095082" cy="1602.7351315961632" r="4.842687684074235" fill="rgb(164,199,118)"/><circle vector-effect="non-scaling-stroke" cx="572.0691691209885" cy="1694.7461975935742" r="4.842687684074235" fill="rgb(166,166,170)"/><circle vector-effect="non-scaling-stroke" cx="589.0185760152486" cy="1694.7461975935742" r="4.842687684074235" fill="rgb(166,166,170)"/><circle vector-effect="non-scaling-stroke" cx="605.9679829095082" cy="1694.7461975935742" r="4.842687684074235" fill="rgb(166,166,170)"/><circle vector-effect="non-scaling-stroke" cx="572.0691691209885" cy="1786.757263590986" r="4.842687684074235" fill="rgb(166,166,170)"/><circle vector-effect="non-scaling-stroke" cx="589.0185760152486" cy="1786.757263590986" r="4.842687684074235" fill="rgb(166,166,170)"/><circle vector-effect="non-scaling-stroke" cx="605.9679829095082" cy="1786.757263590986" r="4.842687684074235" fill="rgb(166,166,170)"/></g></g><g><ellipse vector-effect="non-scaling-stroke" cx="-52.500000000000114" cy="1861.797262081744" rx="219.5" ry="15.589490897476708" fill="rgb(230,230,230)"/><path d=" M -223.984 1870.527 C -188.193 1864.157 -149.054 1865.216 -107.999 1870.527 C -126.711 1854.73 -142.861 1838.933 -124.149 1823.135 C -160.649 1830.666 -165.762 1829.903 -206.366 1823.135 C -196.948 1838.933 -214.566 1854.73 -223.984 1870.527 Z " fill="rgb(187,187,191)"/><path d=" M -215.254 1863.788 C -184.851 1858.703 -151.604 1859.548 -116.729 1863.788 C -132.624 1851.178 -146.343 1838.568 -130.447 1825.958 C -161.454 1831.969 -165.797 1831.361 -200.288 1825.958 C -192.288 1838.568 -207.254 1851.178 -215.254 1863.788 Z " fill="rgb(204,204,204)"/><circle vector-effect="non-scaling-stroke" cx="-203.67401904275818" cy="1827.2707306062596" r="16.19961807666536" fill="rgb(47,46,65)"/><path d=" M -130.135 1808.481 L -141.36 1810.352 L -146.972 1826.565 L -130.759 1836.542 L -112.052 1808.481 L -129.512 1808.481 L -130.135 1808.481 L -130.135 1808.481 Z " fill="rgb(160,97,106)"/><circle vector-effect="non-scaling-stroke" cx="-161.93820708683762" cy="1807.2340549949058" r="26.19033940168225" fill="rgb(160,97,106)"/><path d=" M -17.268 1711.826 C -17.268 1711.826 46.337 1718.686 57.562 1717.439 C 57.562 1717.439 73.775 1714.944 73.775 1714.944 C 73.775 1714.944 81.258 1724.922 77.516 1729.287 C 75.421 1731.802 72.885 1733.915 70.033 1735.522 C 70.033 1735.522 63.174 1733.652 58.185 1735.522 C 58.185 1735.522 2.687 1745.5 -6.043 1738.017 C -14.773 1730.534 -17.268 1711.826 -17.268 1711.826 Z " fill="rgb(47,46,65)"/><path d=" M -21.633 1850.885 C -21.633 1850.885 20.147 1839.037 27.63 1786.656 L 27.63 1781.667 C 27.63 1781.667 35.896 1796.17 38.854 1799.128 C 42.284 1802.557 54.444 1833.424 53.82 1836.542 C 53.197 1839.66 53.82 1840.907 53.82 1840.907 L 71.904 1839.037 L 71.904 1833.424 C 71.904 1833.424 62.239 1804.428 61.615 1797.569 C 61.615 1797.569 37.607 1743.005 37.607 1743.005 C 37.607 1743.005 28.877 1724.922 13.911 1743.005 C 13.911 1743.005 -2.302 1773.561 -2.302 1773.561 L -21.633 1810.976 L -21.633 1850.885 Z " fill="rgb(47,46,65)"/><path d=" M 71.904 1713.074 L 91.859 1706.214 C 91.859 1706.214 110.566 1692.495 106.201 1706.214 C 106.201 1706.214 81.881 1749.865 76.269 1746.747 C 76.269 1746.747 63.907 1735.89 65.411 1734.771 C 66.916 1733.652 76.893 1725.545 71.904 1713.074 Z " fill="rgb(47,46,65)"/><path d=" M 69.492 1829.743 L 85.6 1837.61 C 85.6 1837.61 105.08 1840.607 94.216 1846.226 C 94.216 1846.226 53.384 1857.839 51.885 1852.594 C 51.885 1852.594 50.982 1838.646 52.557 1838.877 C 54.133 1839.108 64.997 1840.232 69.492 1829.743 Z " fill="rgb(47,46,65)"/><path d=" M -13.526 1809.728 C -13.526 1809.728 -5.42 1844.649 -19.138 1852.132 C -32.857 1859.615 -128.889 1860.862 -136.371 1847.143 C -143.854 1833.424 -140.113 1833.424 -140.113 1833.424 L -120.158 1810.976 L -136.371 1809.728 C -136.371 1809.728 -136.371 1804.74 -130.759 1804.116 C -130.759 1804.116 -107.687 1797.257 -92.721 1801.622 C -92.721 1801.622 -69.025 1792.892 -69.025 1792.892 L -13.526 1809.728 Z " fill="rgb(70,107,106)"/><path d=" M -2.926 1700.602 L 7.676 1758.595 L -65.284 1749.865 L -78.379 1697.484 L -2.926 1700.602 L -2.926 1700.602 Z " fill="rgb(63,61,86)"/><path d=" M -5.108 1702.785 L 3.622 1754.541 L -62.789 1746.747 L -75.572 1699.667 L -5.108 1702.785 L -5.108 1702.785 Z " fill="rgb(255,255,255)"/><path d=" M 5.181 1759.219 L 7.676 1758.595 L 8.923 1761.089 L -11.032 1816.588 L -12.909 1815.87 L -13.526 1812.223 L 5.181 1759.219 L 5.181 1759.219 Z " fill="rgb(128,128,128)"/><path d=" M 7.676 1757.971 L -12.279 1815.964 L -87.732 1804.74 L -65.284 1749.865 L 7.676 1757.971 L 7.676 1757.971 Z " fill="rgb(166,166,170)"/><path d=" M -2.302 1756.101 L -2.302 1759.219 L -57.8 1752.983 L -57.177 1749.865 L -2.302 1756.101 L -2.302 1756.101 Z " fill="rgb(67,67,69)"/><path d=" M -3.549 1762.336 L -12.279 1786.656 L -69.025 1779.797 L -59.048 1756.724 L -3.549 1762.336 L -3.549 1762.336 Z " fill="rgb(67,67,69)"/><path d=" M -74.637 1796.633 L -72.766 1791.645 C -72.766 1791.645 -58.424 1766.701 -50.941 1771.69 C -50.941 1771.69 -66.531 1800.998 -66.531 1800.998 L -74.014 1800.998 L -74.637 1796.633 Z " fill="rgb(160,97,106)"/><path d=" M -27.245 1800.375 L -25.374 1792.892 C -25.374 1792.892 -20.386 1769.819 -29.116 1771.066 C -29.116 1771.066 -40.34 1794.139 -40.34 1794.139 L -39.717 1799.128 L -27.245 1800.375 Z " fill="rgb(160,97,106)"/><path d=" M -42.211 1797.257 C -42.211 1797.257 -25.998 1794.762 -25.374 1798.504 C -25.374 1798.504 -21.633 1858.368 -37.222 1860.238 C -37.222 1860.238 -130.136 1870.216 -122.029 1850.885 C -122.029 1850.885 -101.451 1834.048 -101.451 1834.048 L -48.447 1839.66 L -42.211 1797.257 Z " fill="rgb(70,107,106)"/><path d=" M -91.162 1804.428 L -74.637 1792.892 L -63.724 1801.31 L -77.443 1816.276 L -91.162 1804.428 L -91.162 1804.428 Z " fill="rgb(70,107,106)"/><g opacity="0.2"><path d=" M -46.888 1815.653 L -49.382 1839.349 L -92.409 1836.854 L -54.994 1836.231 L -46.888 1815.653 L -46.888 1815.653 Z " fill="rgb(0,0,0)"/></g><circle vector-effect="non-scaling-stroke" cx="-174.86657247067797" cy="1811.9929220786466" r="31.17897626778816" fill="rgb(47,46,65)"/><path d=" M -29.166 1736.802 C -32.314 1738.067 -35.348 1739.767 -36.586 1744.618 L -36.586 1744.618 L -38.939 1744.048 C -38.101 1740.113 -38.069 1736.27 -38.826 1732.555 L -36.411 1732.428 L -36.412 1732.43 L -36.411 1732.428 C -36.024 1734.479 -35.856 1736.563 -35.91 1738.648 C -33.91 1736.388 -31.391 1735.044 -29.018 1734.247 L -29.166 1736.802 L -29.166 1736.802 Z " fill="rgb(144,67,7)"/><path d=" M -29.147 1736.794 C -28.341 1737.55 -25.491 1740.024 -21.984 1740.874 C -20.871 1741.144 -19.684 1741.252 -18.485 1741.084 C -12.914 1740.32 -9.37 1734.07 -9.219 1733.806 L -8.779 1733.01 L -9.42 1732.366 C -9.635 1732.154 -14.739 1727.088 -20.306 1727.857 C -24.68 1728.464 -27.795 1732.432 -29.008 1734.244 L -29.166 1736.802 C -29.153 1736.797 -29.16 1736.799 -29.166 1736.802 L -29.147 1736.794 Z " fill="rgb(164,199,118)"/><path d=" M -36.411 1732.428 L -36.224 1731.997 C -36.049 1731.591 -31.964 1721.932 -36.038 1715.167 C -38.586 1710.936 -43.623 1709 -47.151 1708.131 L -47.151 1708.131 C -49.266 1707.608 -50.84 1707.472 -51.007 1707.462 L -51.864 1707.393 L -52.205 1708.18 C -52.382 1708.591 -56.468 1718.25 -52.389 1725.017 C -49.815 1729.282 -44.705 1731.216 -41.174 1732.072 C -40.258 1732.294 -39.459 1732.445 -38.828 1732.539 C -38.826 1732.55 -38.827 1732.545 -38.828 1732.539 L -36.411 1732.428 L -36.411 1732.428 Z " fill="rgb(164,199,118)"/></g><text transform="matrix(1,0,0,1,53.775,1194.262)" style="font-family:'Open Sans';font-weight:800;font-size:120px;font-style:normal;fill:#a4c776;stroke:none;">The Small Web</text></g></svg>