<?xml version="1.0" encoding="UTF-8" standalone="no"?><!-- Generator: Gravit.io --><svg xmlns="http://www.w3.org/2000/svg" xmlns:xlink="http://www.w3.org/1999/xlink" style="isolation:isolate" viewBox="357 1593.458 323 339.069" width="323pt" height="339.069pt"><g><g><path d=" M 557.249 1641.769 C 551.604 1645.799 546.394 1650.639 546.27 1660.875 L 546.27 1660.875 L 541.32 1660.875 C 541.09 1652.653 539.302 1645 536.009 1637.982 L 540.746 1636.567 L 540.745 1636.572 L 540.746 1636.567 C 542.503 1640.457 543.841 1644.517 544.738 1648.685 C 547.623 1643.231 551.981 1639.347 556.314 1636.621 L 557.249 1641.769 L 557.249 1641.769 Z " fill="rgb(144,67,7)"/><path d=" M 557.283 1641.744 C 559.249 1642.857 566.104 1646.4 573.482 1646.4 C 575.824 1646.4 578.235 1646.044 580.536 1645.133 C 591.239 1640.93 595.271 1626.803 595.443 1626.206 L 595.935 1624.412 L 594.35 1623.442 C 593.822 1623.124 581.239 1615.515 570.546 1619.727 C 562.148 1623.039 557.868 1632.425 556.332 1636.608 L 557.249 1641.769 C 557.272 1641.752 557.261 1641.76 557.249 1641.769 L 557.283 1641.744 Z " fill="rgb(164,199,118)"/><path d=" M 540.746 1636.567 L 540.909 1635.621 C 541.062 1634.729 544.527 1613.567 533.172 1602.087 C 526.071 1594.908 515.128 1593.488 507.7 1593.459 L 507.7 1593.459 C 503.245 1593.439 500.052 1593.928 499.715 1593.987 L 497.978 1594.264 L 497.68 1595.991 C 497.526 1596.894 494.061 1618.056 505.425 1629.537 C 512.595 1636.773 523.681 1638.154 531.109 1638.154 C 533.037 1638.154 534.698 1638.068 535.996 1637.952 C 536.005 1637.972 536 1637.963 535.996 1637.952 L 540.746 1636.567 L 540.746 1636.567 Z " fill="rgb(164,199,118)"/></g><g><ellipse vector-effect="non-scaling-stroke" cx="470.9472222222208" cy="1769.651603009258" rx="66.09537037037052" ry="64.40859259259264" fill="rgb(230,230,230)"/><ellipse vector-effect="non-scaling-stroke" cx="485.6018518518515" cy="1879.4955289351863" rx="54.431481481481654" ry="53.03181481481488" fill="rgb(230,230,230)"/><ellipse vector-effect="non-scaling-stroke" cx="411.4314814814816" cy="1830.0645659722238" rx="54.431481481481626" ry="53.043777777777905" fill="rgb(230,230,230)"/><ellipse vector-effect="non-scaling-stroke" cx="633.3444444444409" cy="1826.4756770833292" rx="46.65555555555568" ry="45.47122222222242" fill="rgb(230,230,230)"/><ellipse vector-effect="non-scaling-stroke" cx="571.1370370370362" cy="1863.1541215277741" rx="46.65555555555568" ry="45.47122222222242" fill="rgb(230,230,230)"/><ellipse vector-effect="non-scaling-stroke" cx="575.0249999999999" cy="1790.3714548611108" rx="50.54351851851857" ry="49.239555555555626" fill="rgb(230,230,230)"/><ellipse vector-effect="non-scaling-stroke" cx="517.9018518518528" cy="1819.6807141203708" rx="54.4314814814816" ry="53.043777777777905" fill="rgb(230,230,230)"/></g><rect x="468.706" y="1685.519" width="155.587" height="115.8" transform="matrix(0,1,-1,0,2289.919,1196.919)" fill="rgb(47,46,65)"/><rect x="468.706" y="1660.875" width="155.587" height="61.76" transform="matrix(1,0,0,1,0,0)" fill="rgb(70,107,106)"/><rect x="468.706" y="1729.761" width="155.587" height="61.76" transform="matrix(1,0,0,1,0,0)" fill="rgb(204,204,204)"/><rect x="468.706" y="1798.647" width="155.587" height="61.76" transform="matrix(1,0,0,1,0,0)" fill="rgb(204,204,204)"/><rect x="468.706" y="1687.061" width="155.587" height="9.502" transform="matrix(1,0,0,1,0,0)" fill="rgb(164,199,118)"/><rect x="468.706" y="1755.947" width="155.587" height="9.502" transform="matrix(1,0,0,1,0,0)" fill="rgb(166,166,170)"/><rect x="468.706" y="1824.833" width="155.587" height="9.502" transform="matrix(1,0,0,1,0,0)" fill="rgb(166,166,170)"/><circle vector-effect="non-scaling-stroke" cx="594.0076119045086" cy="1669.782540958118" r="3.563070892838141" fill="rgb(164,199,118)"/><circle vector-effect="non-scaling-stroke" cx="606.4783600294421" cy="1669.782540958118" r="3.563070892838141" fill="rgb(164,199,118)"/><circle vector-effect="non-scaling-stroke" cx="618.949108154376" cy="1669.782540958118" r="3.563070892838141" fill="rgb(164,199,118)"/><circle vector-effect="non-scaling-stroke" cx="594.0076119045086" cy="1737.4808879220438" r="3.563070892838141" fill="rgb(166,166,170)"/><circle vector-effect="non-scaling-stroke" cx="606.4783600294421" cy="1737.4808879220438" r="3.563070892838141" fill="rgb(166,166,170)"/><circle vector-effect="non-scaling-stroke" cx="618.949108154376" cy="1737.4808879220438" r="3.563070892838141" fill="rgb(166,166,170)"/><circle vector-effect="non-scaling-stroke" cx="594.0076119045086" cy="1805.1792348859697" r="3.563070892838141" fill="rgb(166,166,170)"/><circle vector-effect="non-scaling-stroke" cx="606.4783600294421" cy="1805.1792348859697" r="3.563070892838141" fill="rgb(166,166,170)"/><circle vector-effect="non-scaling-stroke" cx="618.949108154376" cy="1805.1792348859697" r="3.563070892838141" fill="rgb(166,166,170)"/></g></svg>