<?xml version="1.0" standalone="no"?><!-- Generator: Gravit.io --><svg xmlns="http://www.w3.org/2000/svg" xmlns:xlink="http://www.w3.org/1999/xlink" style="isolation:isolate" viewBox="1484.386 530.256 163 325" width="163" height="325"><defs><clipPath id="_clipPath_lEGpQgYZwmCc9zVktyeollWkIRdGlI9a"><rect width="1920" height="1080"/></clipPath></defs><g clip-path="url(#_clipPath_lEGpQgYZwmCc9zVktyeollWkIRdGlI9a)"><g><g transform="matrix(1,0,0,1,271.5,425.967)"><text transform="matrix(1,0,0,1,0,120)" style="font-family:'Salty Dish Script';font-weight:400;font-size:100px;font-style:normal;fill:#7d7d7d;stroke:none;">tincan</text></g><g><path d=" M 246 535.967 C 246 580.672 257.65 616.967 272 616.967 C 286.35 616.967 298 580.672 298 535.967 C 298 491.262 286.35 454.967 272 454.967 C 257.65 454.967 246 491.262 246 535.967 Z " fill="rgb(213,213,213)"/><path d=" M 86 616.967 L 272 616.967 L 272 542.7 L 272 454.967 L 86 454.967 L 86 616.967 Z " fill="rgb(213,213,213)"/><path d=" M 60 535.967 C 60 580.672 71.65 616.967 86 616.967 C 100.35 616.967 112 580.672 112 535.967 C 112 491.262 100.35 454.967 86 454.967 C 71.65 454.967 60 491.262 60 535.967 Z " fill="rgb(125,125,125)"/></g><g><path d=" M 731.39 552.516 C 714.719 593.997 690.375 623.329 677.06 617.978 C 663.746 612.628 666.47 574.606 683.14 533.125 C 699.811 491.645 724.155 462.312 737.47 467.663 C 750.784 473.014 748.06 511.035 731.39 552.516 Z " fill="rgb(213,213,213)"/><path d=" M 849.645 687.337 L 677.06 617.978 L 704.754 549.068 L 737.47 467.663 L 910.054 537.022 L 849.645 687.337 Z " fill="rgb(213,213,213)"/><path d=" M 903.974 621.875 C 887.304 663.355 862.96 692.688 849.645 687.337 C 836.33 681.986 839.054 643.965 855.725 602.484 C 872.395 561.003 896.739 531.671 910.054 537.022 C 923.369 542.372 920.644 580.394 903.974 621.875 Z " fill="rgb(125,125,125)"/></g></g><g><g transform="matrix(1,0,0,1,271.5,766)"><text transform="matrix(1,0,0,1,0,120)" style="font-family:'Salty Dish Script';font-weight:400;font-size:100px;font-style:normal;fill:#7d7d7d;stroke:none;">smalltech</text></g><g><path d=" M 246 876 C 246 920.705 257.65 957 272 957 C 286.35 957 298 920.705 298 876 C 298 831.295 286.35 795 272 795 C 257.65 795 246 831.295 246 876 Z " fill="rgb(213,213,213)"/><path d=" M 86 957 L 272 957 L 272 882.733 L 272 795 L 86 795 L 86 957 Z " fill="rgb(213,213,213)"/><path d=" M 60 876 C 60 920.705 71.65 957 86 957 C 100.35 957 112 920.705 112 876 C 112 831.295 100.35 795 86 795 C 71.65 795 60 831.295 60 876 Z " fill="rgb(125,125,125)"/></g><g><path d=" M 910.39 892.549 C 893.719 934.03 869.375 963.363 856.06 958.012 C 842.746 952.661 845.47 914.639 862.14 873.159 C 878.811 831.678 903.155 802.345 916.47 807.696 C 929.784 813.047 927.06 851.068 910.39 892.549 Z " fill="rgb(213,213,213)"/><path d=" M 1028.645 1027.37 L 856.06 958.012 L 883.754 889.101 L 916.47 807.696 L 1089.054 877.055 L 1028.645 1027.37 Z " fill="rgb(213,213,213)"/><path d=" M 1082.974 961.908 C 1066.304 1003.388 1041.96 1032.721 1028.645 1027.37 C 1015.33 1022.019 1018.054 983.998 1034.725 942.517 C 1051.395 901.036 1075.739 871.704 1089.054 877.055 C 1102.369 882.406 1099.644 920.427 1082.974 961.908 Z " fill="rgb(125,125,125)"/></g></g><g><path d=" M 369.364 164.507 Q 368.882 164.986 368.4 165.6 L 368.4 165.6 L 368.4 165.6 Q 347.6 193.3 314 193.3 L 314 193.3 L 314 193.3 Q 280.5 193.3 259.7 165.6 L 259.7 165.6 L 259.7 165.6 Q 257.5 162.8 255.3 162.8 L 255.3 162.8 L 255.3 162.8 Q 254.2 162.8 252.8 164 L 252.8 164 L 252.8 164 Q 251.4 165.2 251.4 167.5 L 251.4 167.5 L 251.4 167.5 Q 251.4 172.5 259.25 181 L 259.25 181 L 259.25 181 Q 267.1 189.5 280.05 195.95 L 280.05 195.95 L 280.05 195.95 Q 293 202.4 314 202.6 L 314 202.6 L 314 202.6 Q 335.1 202.4 348.05 195.95 L 348.05 195.95 L 348.05 195.95 Q 361 189.5 368.85 181 L 368.85 181 L 368.85 181 Q 373.411 176.062 375.322 172.305 Q 377.284 175.706 381.25 180 L 381.25 180 L 381.25 180 Q 389.1 188.5 402.05 194.95 L 402.05 194.95 L 402.05 194.95 Q 415 201.4 436 201.6 L 436 201.6 L 436 201.6 Q 457.1 201.4 470.05 194.95 L 470.05 194.95 L 470.05 194.95 Q 483 188.5 490.85 180 L 490.85 180 L 490.85 180 Q 498.7 171.5 498.7 166.5 L 498.7 166.5 L 498.7 166.5 Q 498.7 164.2 497.3 163 L 497.3 163 L 497.3 163 Q 495.9 161.8 494.8 161.8 L 494.8 161.8 L 494.8 161.8 Q 492.6 161.8 490.4 164.6 L 490.4 164.6 L 490.4 164.6 Q 469.6 192.3 436 192.3 L 436 192.3 L 436 192.3 Q 402.5 192.3 381.7 164.6 L 381.7 164.6 L 381.7 164.6 Q 380.993 163.7 380.286 163.089 L 380.286 163.089 Q 382.651 158.243 386.1 153.5 L 386.1 153.5 L 386.1 153.5 Q 389.1 149.3 401.6 136.2 L 401.6 136.2 L 401.6 136.2 Q 413.8 123.1 413.8 109.5 L 413.8 109.5 L 413.8 109.5 Q 413.8 97.7 405 91.5 L 405 91.5 L 405 91.5 Q 399.7 87.8 393.6 87.8 L 393.6 87.8 L 393.6 87.8 Q 383.6 87.8 376.2 96.2 L 376.2 96.2 L 376.2 96.2 Q 375.1 97.4 374.3 98.7 L 374.3 98.7 L 374.3 98.7 Q 373.4 97.4 372.3 96.2 L 372.3 96.2 L 372.3 96.2 Q 364.9 88.1 355.1 88.1 L 355.1 88.1 L 355.1 88.1 Q 348.7 88.1 343.4 91.9 L 343.4 91.9 L 343.4 91.9 Q 334.8 98 334.8 109.9 L 334.8 109.9 L 334.8 109.9 Q 334.8 123.7 347.3 136.5 L 347.3 136.5 L 347.3 136.5 Q 349.4 138.8 351.7 141.1 L 351.7 141.1 L 351.7 141.1 Q 359.5 148.9 363 153.65 L 363 153.65 L 363 153.65 Q 366.5 158.4 368.3 162.25 L 368.3 162.25 L 368.3 162.25 Q 368.906 163.546 369.364 164.507 Z  M 375 154.6 L 374.5 154.6 L 374.5 154.6 L 396.6 128.5 L 396.6 128.5 Q 400.8 123.9 403.1 118.3 L 403.1 118.3 L 403.1 118.3 Q 405 113.4 405 109.5 L 405 109.5 L 405 109.5 Q 405 105.1 402.8 102.1 L 402.8 102.1 L 402.8 102.1 Q 399.3 97.1 393 97.1 L 393 97.1 L 393 97.1 Q 387.7 97.1 385.15 99.7 L 385.15 99.7 L 385.15 99.7 Q 382.6 102.3 380 106.3 L 380 106.3 L 380 106.3 Q 377.4 110.3 374.3 110.3 L 374.3 110.3 L 374.3 110.3 Q 371.3 110.3 368.9 106.45 L 368.9 106.45 L 368.9 106.45 Q 366.5 102.6 363.7 100 L 363.7 100 L 363.7 100 Q 360.9 97.4 355.6 97.4 L 355.6 97.4 L 355.6 97.4 Q 349.2 97.4 346.35 101.4 L 346.35 101.4 L 346.35 101.4 Q 343.5 105.4 343.5 109.5 L 343.5 109.5 L 343.5 109.5 Q 343.5 113.4 345.75 118.8 L 345.75 118.8 L 345.75 118.8 Q 348 124.2 352.2 128.8 L 352.2 128.8 Q 371.2 148 375 154.6 L 375 154.6 Z " fill-rule="evenodd" fill="rgb(125,125,125)"/><g><path d=" M 275 196 C 275 240.705 286.65 277 301 277 C 315.35 277 327 240.705 327 196 C 327 151.295 315.35 115 301 115 C 286.65 115 275 151.295 275 196 Z " fill="rgb(213,213,213)"/><path d=" M 115 277 L 301 277 L 301 202.733 L 301 115 L 115 115 L 115 277 Z " fill="rgb(213,213,213)"/><path d=" M 89 196 C 89 240.705 100.65 277 115 277 C 129.35 277 141 240.705 141 196 C 141 151.295 129.35 115 115 115 C 100.65 115 89 151.295 89 196 Z " fill="rgb(125,125,125)"/></g><g><path d=" M 464.775 212.483 C 448.105 253.964 423.761 283.296 410.446 277.945 C 397.131 272.594 399.856 234.573 416.526 193.092 C 433.196 151.612 457.54 122.279 470.855 127.63 C 484.17 132.981 481.446 171.002 464.775 212.483 Z " fill="rgb(213,213,213)"/><path d=" M 583.03 347.304 L 410.446 277.945 L 438.14 209.035 L 470.855 127.63 L 643.44 196.988 L 583.03 347.304 Z " fill="rgb(213,213,213)"/><path d=" M 637.36 281.841 C 620.689 323.322 596.345 352.655 583.03 347.304 C 569.716 341.953 572.44 303.932 589.11 262.451 C 605.781 220.97 630.125 191.637 643.44 196.988 C 656.754 202.339 654.03 240.361 637.36 281.841 Z " fill="rgb(125,125,125)"/></g></g><g><path d=" M 1483.364 164.507 Q 1482.882 164.986 1482.4 165.6 L 1482.4 165.6 L 1482.4 165.6 Q 1461.6 193.3 1428 193.3 L 1428 193.3 L 1428 193.3 Q 1394.5 193.3 1373.7 165.6 L 1373.7 165.6 L 1373.7 165.6 Q 1371.5 162.8 1369.3 162.8 L 1369.3 162.8 L 1369.3 162.8 Q 1368.2 162.8 1366.8 164 L 1366.8 164 L 1366.8 164 Q 1365.4 165.2 1365.4 167.5 L 1365.4 167.5 L 1365.4 167.5 Q 1365.4 172.5 1373.25 181 L 1373.25 181 L 1373.25 181 Q 1381.1 189.5 1394.05 195.95 L 1394.05 195.95 L 1394.05 195.95 Q 1407 202.4 1428 202.6 L 1428 202.6 L 1428 202.6 Q 1449.1 202.4 1462.05 195.95 L 1462.05 195.95 L 1462.05 195.95 Q 1475 189.5 1482.85 181 L 1482.85 181 L 1482.85 181 Q 1487.411 176.062 1489.322 172.305 Q 1491.284 175.706 1495.25 180 L 1495.25 180 L 1495.25 180 Q 1503.1 188.5 1516.05 194.95 L 1516.05 194.95 L 1516.05 194.95 Q 1529 201.4 1550 201.6 L 1550 201.6 L 1550 201.6 Q 1571.1 201.4 1584.05 194.95 L 1584.05 194.95 L 1584.05 194.95 Q 1597 188.5 1604.85 180 L 1604.85 180 L 1604.85 180 Q 1612.7 171.5 1612.7 166.5 L 1612.7 166.5 L 1612.7 166.5 Q 1612.7 164.2 1611.3 163 L 1611.3 163 L 1611.3 163 Q 1609.9 161.8 1608.8 161.8 L 1608.8 161.8 L 1608.8 161.8 Q 1606.6 161.8 1604.4 164.6 L 1604.4 164.6 L 1604.4 164.6 Q 1583.6 192.3 1550 192.3 L 1550 192.3 L 1550 192.3 Q 1516.5 192.3 1495.7 164.6 L 1495.7 164.6 L 1495.7 164.6 Q 1494.993 163.7 1494.286 163.089 L 1494.286 163.089 Q 1496.651 158.243 1500.1 153.5 L 1500.1 153.5 L 1500.1 153.5 Q 1503.1 149.3 1515.6 136.2 L 1515.6 136.2 L 1515.6 136.2 Q 1527.8 123.1 1527.8 109.5 L 1527.8 109.5 L 1527.8 109.5 Q 1527.8 97.7 1519 91.5 L 1519 91.5 L 1519 91.5 Q 1513.7 87.8 1507.6 87.8 L 1507.6 87.8 L 1507.6 87.8 Q 1497.6 87.8 1490.2 96.2 L 1490.2 96.2 L 1490.2 96.2 Q 1489.1 97.4 1488.3 98.7 L 1488.3 98.7 L 1488.3 98.7 Q 1487.4 97.4 1486.3 96.2 L 1486.3 96.2 L 1486.3 96.2 Q 1478.9 88.1 1469.1 88.1 L 1469.1 88.1 L 1469.1 88.1 Q 1462.7 88.1 1457.4 91.9 L 1457.4 91.9 L 1457.4 91.9 Q 1448.8 98 1448.8 109.9 L 1448.8 109.9 L 1448.8 109.9 Q 1448.8 123.7 1461.3 136.5 L 1461.3 136.5 L 1461.3 136.5 Q 1463.4 138.8 1465.7 141.1 L 1465.7 141.1 L 1465.7 141.1 Q 1473.5 148.9 1477 153.65 L 1477 153.65 L 1477 153.65 Q 1480.5 158.4 1482.3 162.25 L 1482.3 162.25 L 1482.3 162.25 Q 1482.906 163.546 1483.364 164.507 Z  M 1489 154.6 L 1488.5 154.6 L 1488.5 154.6 L 1510.6 128.5 L 1510.6 128.5 Q 1514.8 123.9 1517.1 118.3 L 1517.1 118.3 L 1517.1 118.3 Q 1519 113.4 1519 109.5 L 1519 109.5 L 1519 109.5 Q 1519 105.1 1516.8 102.1 L 1516.8 102.1 L 1516.8 102.1 Q 1513.3 97.1 1507 97.1 L 1507 97.1 L 1507 97.1 Q 1501.7 97.1 1499.15 99.7 L 1499.15 99.7 L 1499.15 99.7 Q 1496.6 102.3 1494 106.3 L 1494 106.3 L 1494 106.3 Q 1491.4 110.3 1488.3 110.3 L 1488.3 110.3 L 1488.3 110.3 Q 1485.3 110.3 1482.9 106.45 L 1482.9 106.45 L 1482.9 106.45 Q 1480.5 102.6 1477.7 100 L 1477.7 100 L 1477.7 100 Q 1474.9 97.4 1469.6 97.4 L 1469.6 97.4 L 1469.6 97.4 Q 1463.2 97.4 1460.35 101.4 L 1460.35 101.4 L 1460.35 101.4 Q 1457.5 105.4 1457.5 109.5 L 1457.5 109.5 L 1457.5 109.5 Q 1457.5 113.4 1459.75 118.8 L 1459.75 118.8 L 1459.75 118.8 Q 1462 124.2 1466.2 128.8 L 1466.2 128.8 Q 1485.2 148 1489 154.6 L 1489 154.6 Z " fill-rule="evenodd" fill="rgb(255,195,167)"/><g><path d=" M 1389 196 C 1389 240.705 1400.65 277 1415 277 C 1429.35 277 1441 240.705 1441 196 C 1441 151.295 1429.35 115 1415 115 C 1400.65 115 1389 151.295 1389 196 Z " fill="rgb(216,229,239)"/><path d=" M 1229 277 L 1415 277 L 1415 202.733 L 1415 115 L 1229 115 L 1229 277 Z " fill="rgb(216,229,239)"/><path d=" M 1203 196 C 1203 240.705 1214.65 277 1229 277 C 1243.35 277 1255 240.705 1255 196 C 1255 151.295 1243.35 115 1229 115 C 1214.65 115 1203 151.295 1203 196 Z " fill="rgb(146,170,190)"/></g><g><path d=" M 1578.775 212.483 C 1562.105 253.964 1537.761 283.296 1524.446 277.945 C 1511.131 272.594 1513.856 234.573 1530.526 193.092 C 1547.196 151.612 1571.54 122.279 1584.855 127.63 C 1598.17 132.981 1595.446 171.002 1578.775 212.483 Z " fill="rgb(216,229,239)"/><path d=" M 1697.03 347.304 L 1524.446 277.945 L 1552.14 209.035 L 1584.855 127.63 L 1757.44 196.988 L 1697.03 347.304 Z " fill="rgb(216,229,239)"/><path d=" M 1751.36 281.841 C 1734.689 323.322 1710.345 352.655 1697.03 347.304 C 1683.716 341.953 1686.44 303.932 1703.11 262.451 C 1719.781 220.97 1744.125 191.637 1757.44 196.988 C 1770.754 202.339 1768.03 240.361 1751.36 281.841 Z " fill="rgb(146,170,190)"/></g></g><g><g><path d=" M 1565.443 803 C 1610.148 803 1646.443 814.65 1646.443 829 C 1646.443 843.35 1610.148 855 1565.443 855 C 1520.738 855 1484.443 843.35 1484.443 829 C 1484.443 814.65 1520.738 803 1565.443 803 Z " fill="rgb(216,229,239)"/><path d=" M 1646.443 663 L 1646.443 829 L 1572.176 849 L 1484.443 829 L 1484.443 663 L 1646.443 663 Z " fill="rgb(216,229,239)"/><path d=" M 1565.443 637 C 1610.148 637 1646.443 648.65 1646.443 663 C 1646.443 677.35 1610.148 689 1565.443 689 C 1520.738 689 1484.443 677.35 1484.443 663 C 1484.443 648.65 1520.738 637 1565.443 637 Z " fill="rgb(146,170,190)"/></g><path d=" M 1561.326 616.015 C 1564.33 612.973 1568.424 611.256 1572.699 611.243 C 1580.017 611.249 1586.416 616.174 1588.295 623.246 C 1589.025 623.146 1589.744 623.088 1590.451 623.088 C 1598.668 623.097 1605.578 629.255 1606.529 637.416 C 1608.245 637.077 1609.999 636.888 1611.772 636.888 C 1626.345 636.888 1638.247 648.373 1639 662.756 L 1486 662.756 C 1486.862 658.941 1489.2 655.623 1492.502 653.527 C 1492.548 651.684 1493.401 647.991 1496.419 644.973 C 1498.273 643.131 1501.619 640.94 1507.042 640.94 L 1507.12 640.94 C 1508.293 640.953 1509.46 641.103 1510.598 641.389 C 1514.762 637.446 1520.216 635.148 1525.947 634.922 C 1528.963 628.532 1535.033 624.124 1542.042 623.235 C 1543.496 617.165 1549.512 614.071 1555.58 614.399 Q 1557.691 614.514 1561.326 616.015 Z " fill="rgb(146,170,190)"/><g><path d=" M 1577.163 582.398 C 1571.169 586.678 1565.637 593.569 1565.505 604.437 L 1565.505 604.437 L 1560.249 602.685 C 1560.005 593.955 1558.107 585.829 1554.61 578.378 L 1559.64 576.875 L 1559.639 576.88 L 1559.64 576.875 C 1561.505 581.005 1562.926 585.316 1563.878 589.742 C 1566.942 583.951 1571.569 579.827 1576.17 576.932 L 1577.163 582.398 L 1577.163 582.398 Z " fill="rgb(144,67,7)"/><path d=" M 1577.163 582.398 C 1571.169 586.678 1565.637 593.569 1565.505 604.437 L 1565.505 634.437 L 1560.249 632.685 C 1560.131 628.461 1560.7 617.357 1559.813 606.174 C 1558.868 594.244 1556.415 582.224 1554.61 578.378 L 1559.64 576.875 L 1559.639 576.88 L 1559.64 576.875 C 1561.505 581.005 1562.926 585.316 1563.878 589.742 C 1566.942 583.951 1571.569 579.827 1576.17 576.932 L 1577.163 582.398 L 1577.163 582.398 Z " fill="rgb(144,67,7)"/><path d=" M 1577.199 582.372 C 1579.286 583.554 1586.565 587.316 1594.399 587.316 C 1596.885 587.316 1599.445 586.938 1601.889 585.97 C 1613.253 581.508 1617.534 566.508 1617.717 565.874 L 1618.239 563.969 L 1616.556 562.939 C 1615.995 562.602 1602.635 554.522 1591.281 558.994 C 1582.364 562.511 1577.82 572.477 1576.189 576.919 L 1577.163 582.398 C 1577.187 582.38 1577.175 582.389 1577.163 582.398 L 1577.199 582.372 Z " fill="rgb(164,199,118)"/><path d=" M 1559.64 576.875 L 1559.813 575.871 C 1559.975 574.924 1563.654 552.454 1551.598 540.265 C 1544.058 532.642 1532.439 531.134 1524.552 531.103 L 1524.552 531.103 C 1519.822 531.082 1516.431 531.601 1516.073 531.664 L 1514.229 531.958 L 1513.913 533.792 C 1513.749 534.75 1510.07 557.22 1522.136 569.411 C 1529.749 577.094 1541.52 578.56 1549.407 578.56 C 1551.455 578.56 1553.218 578.469 1554.596 578.346 C 1554.606 578.367 1554.601 578.357 1554.596 578.346 L 1559.64 576.875 L 1559.64 576.875 Z " fill="rgb(164,199,118)"/></g></g></g></svg>