<?xml version="1.0" encoding="UTF-8" standalone="no"?><!-- Generator: Gravit.io --><svg xmlns="http://www.w3.org/2000/svg" xmlns:xlink="http://www.w3.org/1999/xlink" style="isolation:isolate" viewBox="851.782 1637.339 327.218 265.661" width="327.218pt" height="265.661pt"><g><g><rect x="851.922" y="1637.525" width="327.078" height="265.475" transform="matrix(1,0,0,1,0,0)" fill="rgb(230,230,230)"/><rect x="871.884" y="1668.237" width="287.146" height="213.763" transform="matrix(1,0,0,1,0,0)" fill="rgb(255,255,255)" vector-effect="non-scaling-stroke" stroke-width="4" stroke="rgb(47,46,65)" stroke-linejoin="miter" stroke-linecap="butt" stroke-miterlimit="2"/><rect x="851.782" y="1637.339" width="327.078" height="13.895" transform="matrix(1,0,0,1,0,0)" fill="rgb(70,107,106)"/><circle vector-effect="non-scaling-stroke" cx="862.1081341410526" cy="1644.4432533867935" r="2.7892733436368644" fill="rgb(255,255,255)"/><circle vector-effect="non-scaling-stroke" cx="871.8837865705203" cy="1644.4432533867935" r="2.7892733436368644" fill="rgb(255,255,255)"/><circle vector-effect="non-scaling-stroke" cx="881.6594389999851" cy="1644.4432533867935" r="2.7892733436368644" fill="rgb(255,255,255)"/></g><g><path d=" M 1035.435 1798.397 C 1024.909 1805.914 1015.194 1814.938 1014.962 1834.024 L 1014.962 1834.024 L 1005.732 1834.024 C 1005.303 1818.693 1001.97 1804.423 995.829 1791.338 L 1004.662 1788.698 L 1004.66 1788.707 L 1004.662 1788.698 C 1007.938 1795.951 1010.433 1803.522 1012.105 1811.294 C 1017.486 1801.125 1025.611 1793.882 1033.691 1788.798 L 1035.435 1798.397 L 1035.435 1798.397 Z " fill="rgb(144,67,7)"/><path d=" M 1035.498 1798.352 C 1039.163 1800.427 1051.946 1807.034 1065.704 1807.034 C 1070.069 1807.034 1074.565 1806.37 1078.857 1804.67 C 1098.814 1796.834 1106.332 1770.492 1106.653 1769.379 L 1107.57 1766.034 L 1104.614 1764.225 C 1103.629 1763.633 1080.167 1749.443 1060.228 1757.297 C 1044.569 1763.473 1036.589 1780.975 1033.724 1788.775 L 1035.435 1798.397 C 1035.477 1798.366 1035.456 1798.381 1035.435 1798.397 L 1035.498 1798.352 Z " fill="rgb(164,199,118)"/><path d=" M 1004.662 1788.698 L 1004.966 1786.935 C 1005.251 1785.272 1011.711 1745.812 990.54 1724.406 C 977.298 1711.019 956.894 1708.371 943.043 1708.316 L 943.043 1708.316 C 934.737 1708.28 928.782 1709.191 928.153 1709.302 L 924.915 1709.818 L 924.36 1713.039 C 924.072 1714.721 917.611 1754.182 938.801 1775.591 C 952.17 1789.083 972.841 1791.657 986.692 1791.657 C 990.288 1791.657 993.384 1791.497 995.804 1791.281 C 995.822 1791.318 995.813 1791.301 995.804 1791.281 L 1004.662 1788.698 L 1004.662 1788.698 Z " fill="rgb(164,199,118)"/></g></g></svg>